<svg width="12" height="13" viewBox="0 0 12 13" fill="none" xmlns="http://www.w3.org/2000/svg">
<path d="M10.9216 4.59304C10.8643 4.62646 9.50031 5.33186 9.50031 6.89589C9.56459 8.67957 11.2216 9.30509 11.25 9.30509C11.2216 9.33852 10.9998 10.1572 10.343 11.0154C9.82174 11.7547 9.24316 12.5 8.36459 12.5C7.52887 12.5 7.22887 12.0073 6.26458 12.0073C5.22902 12.0073 4.93601 12.5 4.14315 12.5C3.26458 12.5 2.64315 11.7147 2.09345 10.9824C1.37932 10.0239 0.772333 8.51982 0.750905 7.0756C0.736464 6.3103 0.893917 5.55802 1.29361 4.91904C1.85774 4.02699 2.86489 3.42143 3.96473 3.40146C4.80744 3.37498 5.55744 3.9406 6.07173 3.9406C6.56458 3.9406 7.48601 3.40146 8.52856 3.40146C8.97857 3.4019 10.1786 3.52822 10.9216 4.59304ZM6.00045 3.24866C5.85045 2.54978 6.26458 1.85089 6.6503 1.40508C7.14316 0.865938 7.92158 0.5 8.59285 0.5C8.63571 1.19889 8.36412 1.88432 7.87872 2.38352C7.44316 2.92266 6.69316 3.32853 6.00045 3.24866Z" fill="black"/>
</svg>
