<svg width="25" height="25" viewBox="0 0 25 25" fill="none" xmlns="http://www.w3.org/2000/svg">
<path d="M23.001 12.7331C23.001 11.8698 22.9296 11.2398 22.7748 10.5864H12.7153V14.483H18.62C18.501 15.4514 17.8582 16.9097 16.4296 17.8897L16.4096 18.0202L19.5902 20.4349L19.8106 20.4564C21.8343 18.6247 23.001 15.9297 23.001 12.7331Z" fill="#4285F4"/>
<path d="M12.7145 23.0001C15.6073 23.0001 18.0358 22.0667 19.8097 20.4567L16.4287 17.89C15.524 18.5083 14.3097 18.94 12.7145 18.94C9.88118 18.94 7.47645 17.1083 6.61922 14.5767L6.49358 14.5871L3.18632 17.0955L3.14307 17.2133C4.90495 20.6433 8.52399 23.0001 12.7145 23.0001Z" fill="#34A853"/>
<path d="M6.61997 14.5765C6.39379 13.9232 6.26289 13.2231 6.26289 12.4998C6.26289 11.7764 6.39379 11.0765 6.60807 10.4231L6.60208 10.284L3.25337 7.73535L3.14381 7.78642C2.41765 9.20977 2.00098 10.8081 2.00098 12.4998C2.00098 14.1915 2.41765 15.7897 3.14381 17.2131L6.61997 14.5765Z" fill="#FBBC05"/>
<path d="M12.7145 6.05997C14.7264 6.05997 16.0835 6.91163 16.8574 7.62335L19.8812 4.73C18.0241 3.03834 15.6074 2 12.7145 2C8.52402 2 4.90496 4.35665 3.14307 7.78662L6.60734 10.4233C7.47647 7.89166 9.88122 6.05997 12.7145 6.05997Z" fill="#EB4335"/>
</svg>
